<?xml version="1.0" encoding="utf-8"?>
<!-- Generator: Adobe Illustrator 16.0.0, SVG Export Plug-In . SVG Version: 6.00 Build 0)  -->
<!DOCTYPE svg PUBLIC "-//W3C//DTD SVG 1.1//EN" "http://www.w3.org/Graphics/SVG/1.1/DTD/svg11.dtd">
<svg version="1.1" id="Layer_1" xmlns="http://www.w3.org/2000/svg" xmlns:xlink="http://www.w3.org/1999/xlink" x="0px" y="0px"
	 width="460.833px" height="114.667px" viewBox="0 0 460.833 114.667" enable-background="new 0 0 460.833 114.667"
	 xml:space="preserve">
<g>
	<g>
		<defs>
			<rect id="SVGID_1_" x="-162.833" y="-430.167" width="750" height="1334"/>
		</defs>
		<clipPath id="SVGID_2_">
			<use xlink:href="#SVGID_1_"  overflow="visible"/>
		</clipPath>
		<path clip-path="url(#SVGID_2_)" fill="#FFFFFF" d="M102.204,47.147h-8.216V10.664c0-5.624-4.601-10.225-10.224-10.225
			c-5.624,0-10.225,4.601-10.225,10.225v93.417c0,5.625,4.601,10.226,10.225,10.226c5.623,0,10.224-4.601,10.224-10.226V67.598
			h8.216c5.624,0,10.225-4.601,10.225-10.225C112.429,51.75,107.828,47.147,102.204,47.147"/>
	</g>
	<g>
		<defs>
			<rect id="SVGID_3_" x="-162.833" y="-430.167" width="750" height="1334"/>
		</defs>
		<clipPath id="SVGID_4_">
			<use xlink:href="#SVGID_3_"  overflow="visible"/>
		</clipPath>
		<path clip-path="url(#SVGID_4_)" fill="#FFFFFF" d="M55.095,4.661L55.095,4.661H11.098c-5.624,0-10.225,4.601-10.225,10.225
			c0,5.623,4.601,10.224,10.225,10.224H44.87v17.063H11.098c-5.624,0-10.225,4.601-10.225,10.224v0.001
			c0,5.623,4.601,10.225,10.225,10.225h30.243l-26.35,30.969c-3.528,4.381-2.832,10.85,1.547,14.377
			c4.379,3.529,10.849,2.832,14.377-1.547l27.51-32.334c0.217-0.269,0.418-0.547,0.603-0.83c4.219-5.24,6.281-12.745,6.281-20.013
			c0-0.066,0.011,0.916,0.011,0.85v-1.696v-0.001V14.886C65.32,9.262,60.719,4.661,55.095,4.661"/>
	</g>
	<g>
		<defs>
			<rect id="SVGID_5_" x="-162.833" y="-430.167" width="750" height="1334"/>
		</defs>
		<clipPath id="SVGID_6_">
			<use xlink:href="#SVGID_5_"  overflow="visible"/>
		</clipPath>
		<path clip-path="url(#SVGID_6_)" fill="#FFFFFF" d="M404.512,62.515c-0.311-0.396-0.65-0.754-1.006-1.094V25.11h18.725
			c5.621,0,10.225-4.601,10.225-10.225c0-5.623-4.604-10.225-10.225-10.225h-57.895c-5.625,0-10.225,4.602-10.225,10.225
			c0,5.624,4.6,10.225,10.225,10.225h18.721v36.312c-0.354,0.34-0.693,0.697-1.004,1.094l-23.979,30.777
			c-3.457,4.436-2.654,10.894,1.781,14.35c4.438,3.456,10.895,2.654,14.35-1.781l19.078-24.486l19.076,24.486
			c3.457,4.438,9.914,5.237,14.35,1.781h0.002c4.436-3.456,5.236-9.914,1.779-14.35L404.512,62.515z"/>
	</g>
	<g>
		<defs>
			<rect id="SVGID_7_" x="-162.833" y="-430.167" width="750" height="1334"/>
		</defs>
		<clipPath id="SVGID_8_">
			<use xlink:href="#SVGID_7_"  overflow="visible"/>
		</clipPath>
		<path clip-path="url(#SVGID_8_)" fill="#FFFFFF" d="M450.147,0.438L450.147,0.438c-5.623,0-10.225,4.601-10.225,10.225v36.484
			h-8.215c-5.625,0-10.227,4.602-10.227,10.225c0,5.624,4.602,10.225,10.227,10.225h8.215v36.484
			c0,5.623,4.602,10.225,10.225,10.225s10.225-4.602,10.225-10.225V10.664C460.372,5.04,455.77,0.438,450.147,0.438"/>
	</g>
	<g>
		<defs>
			<rect id="SVGID_9_" x="-162.833" y="-430.167" width="750" height="1334"/>
		</defs>
		<clipPath id="SVGID_10_">
			<use xlink:href="#SVGID_9_"  overflow="visible"/>
		</clipPath>
		<path clip-path="url(#SVGID_10_)" fill="#FFFFFF" d="M164.093,4.661L164.093,4.661h-34.695c-5.624,0-10.225,4.601-10.225,10.225
			v84.973c0,5.623,4.601,10.225,10.225,10.225h34.695c5.624,0,10.225-4.602,10.225-10.225V14.886
			C174.318,9.262,169.717,4.661,164.093,4.661 M153.87,89.634h-14.246V25.11h14.246V89.634z"/>
	</g>
	<g>
		<defs>
			<rect id="SVGID_11_" x="-162.833" y="-430.167" width="750" height="1334"/>
		</defs>
		<clipPath id="SVGID_12_">
			<use xlink:href="#SVGID_11_"  overflow="visible"/>
		</clipPath>
		<path clip-path="url(#SVGID_12_)" fill="#FFFFFF" d="M223.763,0.438L223.763,0.438c-5.624,0-10.225,4.601-10.225,10.225v36.583
			c-0.438-0.058-0.883-0.099-1.336-0.099h-8.215V10.664c0-5.624-4.601-10.225-10.224-10.225c-5.624,0-10.225,4.601-10.225,10.225
			v93.417c0,5.625,4.601,10.226,10.225,10.226c5.623,0,10.224-4.601,10.224-10.226V67.598h8.215c0.453,0,0.897-0.041,1.336-0.099
			v36.582c0,5.625,4.601,10.226,10.225,10.226c5.623,0,10.225-4.601,10.225-10.226V10.664C233.988,5.04,229.386,0.438,223.763,0.438
			"/>
	</g>
	<g>
		<defs>
			<rect id="SVGID_13_" x="-162.833" y="-430.167" width="750" height="1334"/>
		</defs>
		<clipPath id="SVGID_14_">
			<use xlink:href="#SVGID_13_"  overflow="visible"/>
		</clipPath>
		<path clip-path="url(#SVGID_14_)" fill="#FFFFFF" d="M306.057,89.634H267.19v-74.75c0-5.623-4.602-10.224-10.225-10.224
			c-5.625,0-10.225,4.601-10.225,10.224v84.974c0,5.623,4.6,10.225,10.225,10.225h49.092c5.623,0,10.225-4.602,10.225-10.225
			C316.282,94.235,311.68,89.634,306.057,89.634"/>
	</g>
	<g>
		<defs>
			<rect id="SVGID_15_" x="-162.833" y="-430.167" width="750" height="1334"/>
		</defs>
		<clipPath id="SVGID_16_">
			<use xlink:href="#SVGID_15_"  overflow="visible"/>
		</clipPath>
		<path clip-path="url(#SVGID_16_)" fill="#FFFFFF" d="M332.709,0.438c-5.623,0-10.225,4.601-10.225,10.225v93.418
			c0,5.623,4.602,10.225,10.225,10.225s10.225-4.602,10.225-10.225V10.664C342.934,5.04,338.333,0.438,332.709,0.438"/>
	</g>
</g>
</svg>
