<?xml version="1.0" encoding="utf-8"?>
<!-- Generator: Adobe Illustrator 16.0.0, SVG Export Plug-In . SVG Version: 6.00 Build 0)  -->
<!DOCTYPE svg PUBLIC "-//W3C//DTD SVG 1.1//EN" "http://www.w3.org/Graphics/SVG/1.1/DTD/svg11.dtd">
<svg version="1.1" id="Layer_1" xmlns="http://www.w3.org/2000/svg" xmlns:xlink="http://www.w3.org/1999/xlink" x="0px" y="0px"
	 width="612px" height="792px" viewBox="0 0 612 792" enable-background="new 0 0 612 792" xml:space="preserve">
<g>
	<g>
		<path fill="#FFFFFF" d="M602.975,527.365c-71.982-72.002-82.813-108.131-82.813-223.166c0-118.3-95.88-214.2-214.159-214.2
			c-118.28,0-214.159,95.901-214.159,214.2c0,62.026-1.652,85.18-10.19,113.607c-10.618,35.415-32.416,69.319-72.634,109.559
			c-19.267,19.278-5.619,52.233,21.635,52.233h169.798l-1.541,15.301c0,59.149,47.94,107.1,107.08,107.1
			c59.139,0,107.079-47.95,107.079-107.1l-1.541-15.301h169.81C608.604,579.599,622.252,546.644,602.975,527.365z M306.012,671.398
			c-42.239,0-76.489-34.261-76.489-76.499l1.541-15.301h149.878l1.562,15.301C382.502,637.138,348.25,671.398,306.012,671.398z
			 M30.663,548.999c91.78-91.8,91.78-153,91.78-244.799c0-101.388,82.181-183.6,183.559-183.6s183.559,82.212,183.568,183.6
			c0,91.8,0,153,91.779,244.799H30.663z"/>
	</g>
</g>
</svg>
